# xmcd
#
# Track frame offsets:
# 150
# 15420
# 29430
# 50132
# 69150
# 84562
# 102165
# 119880
# 135112
# 153187
# 167612
# 184720
# 211232
#
# Disc length: 2998 seconds
#
#
# Revision: 0
# Processed by: cddbd v1.4PL0 Copyright (c) Steve Scherf et al.
# Submitted via: FreeRIP 2.52 
#
DISCID=a20bb40d
DTITLE=Orville Davis - Howl At The Moon
DYEAR=1995
DGENRE=Country
TTITLE0=I Keep Sayin' Never Again
TTITLE1=Trouble With The Law
TTITLE2=Wanted: Total Stranger
TTITLE3=Song to You DD
TTITLE4=Midnight Drive-in Show
TTITLE5=A Little Dangerous
TTITLE6=Howl At The Moon
TTITLE7=Bare Walls
TTITLE8=Caught Me On A Bad Night
TTITLE9=One Last Dance
TTITLE10=No More Sunset
TTITLE11=Blue Angel
TTITLE12=Goodbye Boogie Blues
EXTD=
EXTT0=
EXTT1=
EXTT2=
EXTT3=
EXTT4=
EXTT5=
EXTT6=
EXTT7=
EXTT8=
EXTT9=
EXTT10=
EXTT11=
EXTT12=
PLAYORDER=
